# Blender v2.81 (sub 16) OBJ File: 'quadra.blend'
# www.blender.org
mtllib lojinha.mtl
v 2.055846 10.072246 -8.044674
v 2.055846 -0.007984 -8.044674
v 2.055846 10.072246 -18.088926
v 2.055846 -0.007984 -18.088926
v 17.985043 10.072246 -8.044674
v 17.985043 -0.007984 -8.044674
v 17.985043 10.072246 -18.088926
v 17.985043 -0.007984 -18.088926
vt 0.306249 0.386886
vt 0.500000 0.193827
vt 0.500000 0.386886
vt 0.500000 0.000076
vt 0.806173 0.193827
vt 0.999924 0.193827
vt 0.806173 0.386886
vt 0.806173 0.580637
vt 0.306249 0.193827
vt 0.000076 0.386886
vt 0.000076 0.193827
vt 0.806173 0.000076
vt 0.999924 0.386886
vt 0.500000 0.580637
vn 1.0000 0.0000 0.0000
vn 0.0000 0.0000 1.0000
vn -1.0000 0.0000 0.0000
vn 0.0000 0.0000 -1.0000
vn 0.0000 -1.0000 0.0000
vn 0.0000 1.0000 0.0000
usemtl Material.001
s off
f 2/1/1 3/2/1 1/3/1
f 4/4/2 7/5/2 3/2/2
f 8/6/3 5/7/3 7/5/3
f 6/8/4 1/3/4 5/7/4
f 7/5/5 1/3/5 3/2/5
f 4/9/6 6/10/6 8/11/6
f 2/1/1 4/9/1 3/2/1
f 4/4/2 8/12/2 7/5/2
f 8/6/3 6/13/3 5/7/3
f 6/8/4 2/14/4 1/3/4
f 7/5/5 5/7/5 1/3/5
f 4/9/6 2/1/6 6/10/6
